<svg xmlns="http://www.w3.org/2000/svg" width="1815.658" height="738.908" viewBox="0 0 1815.658 738.908"><path d="M320.775,283.335H221.932A6.425,6.425,0,0,1,215.5,276.9V178.032a6.425,6.425,0,0,1,6.432-6.432H320.8a6.425,6.425,0,0,1,6.432,6.432V276.9A6.468,6.468,0,0,1,320.775,283.335Z" transform="translate(74.723 62.841)" fill="blue" opacity="0.025"/><path d="M323.733,286.475H222.113a6.606,6.606,0,0,1-6.613-6.613V178.213a6.606,6.606,0,0,1,6.613-6.613h101.65a6.606,6.606,0,0,1,6.613,6.613v101.65A6.65,6.65,0,0,1,323.733,286.475Z" transform="translate(1331.652 283.497)" fill="blue" opacity="0.025"/><path d="M343.8,307.774H223.339a7.831,7.831,0,0,1-7.839-7.839v-120.5a7.831,7.831,0,0,1,7.839-7.839h120.5a7.831,7.831,0,0,1,7.839,7.839v120.5A7.883,7.883,0,0,1,343.8,307.774Z" transform="translate(1415.563 -171.6)" fill="blue" opacity="0.025"/><path d="M596.107,532.548h-58.7a3.807,3.807,0,0,1-3.81-3.81V470.01a3.807,3.807,0,0,1,3.81-3.81h58.7a3.807,3.807,0,0,1,3.81,3.81v58.7A3.834,3.834,0,0,1,596.107,532.548Z" transform="translate(-159.489 -156.656)" fill="blue" opacity="0.025"/><path d="M592.647,528.875H537.2a3.6,3.6,0,0,1-3.6-3.6V469.8a3.6,3.6,0,0,1,3.6-3.6h55.448a3.6,3.6,0,0,1,3.6,3.6v55.448A3.621,3.621,0,0,1,592.647,528.875Z" transform="translate(1106.629 75.098)" fill="blue" opacity="0.025"/><path d="M603.595,540.5H537.866a4.263,4.263,0,0,1-4.266-4.266V470.466a4.263,4.263,0,0,1,4.266-4.266h65.728a4.263,4.263,0,0,1,4.266,4.266v65.728A4.293,4.293,0,0,1,603.595,540.5Z" transform="translate(1207.797 -344.017)" fill="blue" opacity="0.025"/><path d="M1819.985,364.978h-68.591a7.485,7.485,0,0,1-7.494-7.494V288.894a7.485,7.485,0,0,1,7.494-7.494h68.591a7.485,7.485,0,0,1,7.493,7.494v68.591A7.465,7.465,0,0,1,1819.985,364.978Z" transform="translate(-760.73 88.123)" fill="blue" opacity="0.025"/><path d="M1833.086,379.37h-80.4a8.774,8.774,0,0,1-8.784-8.784v-80.4a8.774,8.774,0,0,1,8.784-8.784h80.4a8.774,8.774,0,0,1,8.784,8.784v80.4A8.75,8.75,0,0,1,1833.086,379.37Z" transform="translate(-1743.9 280.555)" fill="blue" opacity="0.025"/><path d="M2059.651,507.272H1888.317a9.907,9.907,0,0,1-9.917-9.917V453.317a9.907,9.907,0,0,1,9.917-9.917h171.334a9.907,9.907,0,0,1,9.917,9.917v44.037A9.949,9.949,0,0,1,2059.651,507.272Z" transform="translate(-852.34 -22.218)" fill="blue" opacity="0.025"/><path d="M2090.862,518.27H1890.025a11.614,11.614,0,0,1-11.625-11.625v-51.62a11.614,11.614,0,0,1,11.625-11.625h200.837a11.613,11.613,0,0,1,11.625,11.625v51.62A11.662,11.662,0,0,1,2090.862,518.27Z" transform="translate(-1828.125 179.108)" fill="blue" opacity="0.025"/><g transform="translate(391.369 677.382)" opacity="0.025"><path d="M238.263,1380.226a30.763,30.763,0,1,1,30.763-30.763A30.788,30.788,0,0,1,238.263,1380.226Zm0-46.574a15.811,15.811,0,1,0,15.811,15.811A15.841,15.841,0,0,0,238.263,1333.651Z" transform="translate(-207.5 -1318.7)" fill="blue"/></g><g transform="translate(36.294 99.187)" opacity="0.025"><path d="M238.263,1380.226a30.763,30.763,0,1,1,30.763-30.763A30.788,30.788,0,0,1,238.263,1380.226Zm0-46.574a15.811,15.811,0,1,0,15.811,15.811A15.841,15.841,0,0,0,238.263,1333.651Z" transform="translate(-207.5 -1318.7)" fill="blue"/></g><g transform="translate(1322.24 658.189)" opacity="0.025"><path d="M238.263,1380.226a30.763,30.763,0,1,1,30.763-30.763A30.788,30.788,0,0,1,238.263,1380.226Zm0-46.574a15.811,15.811,0,1,0,15.811,15.811A15.841,15.841,0,0,0,238.263,1333.651Z" transform="translate(-207.5 -1318.7)" fill="blue"/></g><g transform="translate(555.449 434.209)" fill="none" stroke="blue" stroke-miterlimit="10" stroke-width="10" opacity="0.025"><circle cx="20.393" cy="20.393" r="20.393" stroke="none"/><circle cx="20.393" cy="20.393" r="15.393" fill="none"/></g><g transform="translate(401.903 38.349)" fill="none" stroke="blue" stroke-miterlimit="10" stroke-width="10" opacity="0.025"><circle cx="20.393" cy="20.393" r="20.393" stroke="none"/><circle cx="20.393" cy="20.393" r="15.393" fill="none"/></g><g transform="translate(1413.146 176.3)" fill="none" stroke="blue" stroke-miterlimit="10" stroke-width="10" opacity="0.025"><circle cx="20.393" cy="20.393" r="20.393" stroke="none"/><circle cx="20.393" cy="20.393" r="15.393" fill="none"/></g><g transform="translate(98.411 369.432)" fill="none" stroke="blue" stroke-miterlimit="10" stroke-width="10" opacity="0.025"><circle cx="20.393" cy="20.393" r="20.393" stroke="none"/><circle cx="20.393" cy="20.393" r="15.393" fill="none"/></g><g transform="translate(1703.443 393.424)" fill="none" stroke="blue" stroke-miterlimit="10" stroke-width="10" opacity="0.025"><circle cx="20.393" cy="20.393" r="20.393" stroke="none"/><circle cx="20.393" cy="20.393" r="15.393" fill="none"/></g></svg>