<svg xmlns="http://www.w3.org/2000/svg" xmlns:xlink="http://www.w3.org/1999/xlink" width="1600" height="900"><defs><linearGradient id="b" x1=".469" y1="2.968" x2=".552" y2="-3.695" gradientUnits="objectBoundingBox"><stop offset="0" stop-color="#fff"/><stop offset="1" stop-color="#c9e6ff"/></linearGradient><linearGradient id="a" x1="1.876" y1=".5" x2=".877" y2=".5" gradientUnits="objectBoundingBox"><stop offset="0" stop-color="#f6f3ff"/><stop offset="1" stop-color="#e5d6ff"/></linearGradient><linearGradient id="c" x1="-.256" y1=".907" x2=".288" y2=".614" xlink:href="#a"/></defs><g transform="translate(-.923 -1338)"><path transform="translate(.923 1338)" fill="url(#b)" d="M0 0H1600V900H0z"/><g opacity=".02"><path d="M373.621 1823.146h-82.4a5.356 5.356 0 0 1-5.362-5.362v-82.422a5.356 5.356 0 0 1 5.362-5.362h82.422a5.356 5.356 0 0 1 5.362 5.362v82.422a5.392 5.392 0 0 1-5.384 5.362z" fill="#00f"/><path d="M141.621 1471.146h-82.4a5.356 5.356 0 0 1-5.362-5.362v-82.422a5.356 5.356 0 0 1 5.362-5.362h82.422a5.356 5.356 0 0 1 5.362 5.362v82.422a5.392 5.392 0 0 1-5.384 5.362z" fill="#00f"/><path d="M1423.898 2147.983h-84.713a5.507 5.507 0 0 1-5.513-5.513v-84.737a5.507 5.507 0 0 1 5.513-5.513h84.738a5.507 5.507 0 0 1 5.513 5.513v84.738a5.543 5.543 0 0 1-5.538 5.512z" fill="#00f"/><path d="M1288.567 1845.407h-46.8a3.042 3.042 0 0 1-3.046-3.046v-46.815a3.042 3.042 0 0 1 3.046-3.046h46.816a3.042 3.042 0 0 1 3.046 3.046v46.816a3.063 3.063 0 0 1-3.062 3.045z" fill="#00f"/><path d="M1510.578 1533.741h-100.42a6.528 6.528 0 0 1-6.535-6.535v-100.449a6.528 6.528 0 0 1 6.535-6.535h100.449a6.528 6.528 0 0 1 6.535 6.535v100.449a6.571 6.571 0 0 1-6.564 6.535z" fill="#00f"/><path d="M407.899 1864.07h-48.931a3.174 3.174 0 0 1-3.176-3.176v-48.957a3.174 3.174 0 0 1 3.176-3.176h48.931a3.174 3.174 0 0 1 3.176 3.176v48.931a3.2 3.2 0 0 1-3.176 3.202z" fill="#00f"/><path d="M175.899 1512.07h-48.931a3.174 3.174 0 0 1-3.176-3.176v-48.957a3.174 3.174 0 0 1 3.176-3.176h48.931a3.174 3.174 0 0 1 3.176 3.176v48.931a3.2 3.2 0 0 1-3.176 3.202z" fill="#00f"/><path d="M1460.486 2176.327h-46.223a3 3 0 0 1-3-3v-46.248a3 3 0 0 1 3-3h46.223a3 3 0 0 1 3 3v46.223a3.019 3.019 0 0 1-3 3.025z" fill="#00f"/><path d="M1308.782 1864.02h-25.537a1.656 1.656 0 0 1-1.658-1.658v-25.55a1.656 1.656 0 0 1 1.658-1.658h25.537a1.656 1.656 0 0 1 1.658 1.658v25.537a1.668 1.668 0 0 1-1.658 1.671z" fill="#00f"/><path d="M1553.95 1567.339h-54.794a3.554 3.554 0 0 1-3.556-3.556v-54.822a3.554 3.554 0 0 1 3.556-3.556h54.794a3.554 3.554 0 0 1 3.556 3.556v54.793a3.579 3.579 0 0 1-3.556 3.585z" fill="#00f"/><path d="M926.947 1879.426h-57.18a6.24 6.24 0 0 1-6.247-6.247V1816a6.24 6.24 0 0 1 6.247-6.247h57.18a6.24 6.24 0 0 1 6.247 6.247v57.179a6.223 6.223 0 0 1-6.247 6.247z" fill="#00f"/><path d="M118.271 2132.105H51.245a7.314 7.314 0 0 1-7.323-7.323v-67.025a7.314 7.314 0 0 1 7.323-7.323h67.026a7.314 7.314 0 0 1 7.323 7.323v67.025a7.294 7.294 0 0 1-7.323 7.323z" fill="#00f"/><path d="M1050.375 1917.18H907.542a8.259 8.259 0 0 1-8.267-8.267v-36.711a8.259 8.259 0 0 1 8.267-8.267h142.833a8.259 8.259 0 0 1 8.267 8.267v36.711a8.294 8.294 0 0 1-8.267 8.267z" fill="#00f"/><path d="M262.947 2163.327H95.524a9.681 9.681 0 0 1-9.691-9.691v-43.032a9.681 9.681 0 0 1 9.691-9.691h167.423a9.681 9.681 0 0 1 9.691 9.691v43.032a9.722 9.722 0 0 1-9.691 9.691z" fill="#00f"/><path d="M395.824 2197.947a25.645 25.645 0 1 1 25.645-25.645 25.666 25.666 0 0 1-25.645 25.645zm0-38.826a13.181 13.181 0 1 0 13.181 13.181 13.205 13.205 0 0 0-13.181-13.181z" fill="#00f"/><path d="M204.824 1642.524a25.645 25.645 0 1 1 25.645-25.645 25.666 25.666 0 0 1-25.645 25.645zm0-38.826a13.181 13.181 0 1 0 13.181 13.181 13.205 13.205 0 0 0-13.181-13.181z" fill="#00f"/><path d="M1421.824 1744.524a25.645 25.645 0 1 1 25.645-25.645 25.666 25.666 0 0 1-25.645 25.645zm0-38.826a13.181 13.181 0 1 0 13.181 13.181 13.205 13.205 0 0 0-13.181-13.181z" fill="#00f"/><path d="M1120.824 1456.524a25.645 25.645 0 1 1 25.645-25.645 25.666 25.666 0 0 1-25.645 25.645zm0-38.826a13.181 13.181 0 1 0 13.181 13.181 13.205 13.205 0 0 0-13.181-13.181z" fill="#00f"/><path d="M1171.824 2181.947a25.645 25.645 0 1 1 25.645-25.645 25.666 25.666 0 0 1-25.645 25.645zm0-38.826a13.181 13.181 0 1 0 13.181 13.181 13.205 13.205 0 0 0-13.181-13.181z" fill="#00f"/><g transform="translate(506.961 1874.502)" fill="none" stroke="#00f" stroke-miterlimit="10" stroke-width="10"><circle cx="17" cy="17" r="17" stroke="none"/><circle cx="17" cy="17" r="12"/></g><g transform="translate(410.961 1424.518)" fill="none" stroke="#00f" stroke-miterlimit="10" stroke-width="10"><circle cx="17" cy="17" r="17" stroke="none"/><circle cx="17" cy="17" r="12"/></g><g transform="translate(1221.961 1591.643)" fill="none" stroke="#00f" stroke-miterlimit="10" stroke-width="10"><circle cx="17" cy="17" r="17" stroke="none"/><circle cx="17" cy="17" r="12"/></g><g transform="translate(125.961 1803.458)" fill="none" stroke="#00f" stroke-miterlimit="10" stroke-width="10"><circle cx="17" cy="17" r="17" stroke="none"/><circle cx="17" cy="17" r="12"/></g><g transform="translate(1454.961 1916.771)" fill="none" stroke="#00f" stroke-miterlimit="10" stroke-width="10"><circle cx="17" cy="17" r="17" stroke="none"/><circle cx="17" cy="17" r="12"/></g></g><path d="M1198.555 1838.888l.226-.13a1.04 1.04 0 0 0-1.04-1.8l-.225.13a33.311 33.311 0 0 1-7.897 3.268 1.047 1.047 0 1 0 .563 2.015 36.214 36.214 0 0 0 8.373-3.483zm7.276-5.852a1.3 1.3 0 0 0 .245-.2 28.611 28.611 0 0 0 5.067-7.91 1.04 1.04 0 1 0-1.913-.816 26.741 26.741 0 0 1-4.708 7.337 1.031 1.031 0 0 0 .065 1.464 1.051 1.051 0 0 0 1.243.126zm-24.34 10.812a1.06 1.06 0 0 0 .51-.987 1.037 1.037 0 0 0-1.117-.947 48.491 48.491 0 0 1-8.876-.038 1.043 1.043 0 0 0-.213 2.075 50.837 50.837 0 0 0 9.272.05 1.217 1.217 0 0 0 .423-.153zm-104.619 52.568a1 1 0 0 0 .463-.598c.01-.035 1.014-3.286 3.002-8.576a1.033 1.033 0 1 0-1.94-.71c-1.985 5.347-3.021 8.646-3.033 8.678a1.059 1.059 0 0 0 .696 1.31 1.106 1.106 0 0 0 .812-.104zm135.962-79.789a.978.978 0 0 0 .51-.834 27.179 27.179 0 0 0-.992-9.358 1.031 1.031 0 1 0-1.979.572 25.108 25.108 0 0 1 .915 8.655 1.04 1.04 0 0 0 .963 1.095.885.885 0 0 0 .583-.13zm-49.34 25.37a.941.941 0 0 0 .463-.598 1.059 1.059 0 0 0-.696-1.31 40.572 40.572 0 0 1-8.108-3.542 1.048 1.048 0 1 0-1.055 1.81 42.529 42.529 0 0 0 8.537 3.715 1 1 0 0 0 .858-.079zm-80.3 37.296a1.058 1.058 0 0 0 .436-.492 238.076 238.076 0 0 1 3.6-8.32 1.043 1.043 0 0 0-1.903-.853 256.929 256.929 0 0 0-3.619 8.391 1.013 1.013 0 0 0 .57 1.351 1.058 1.058 0 0 0 .915-.078zm124.7-79.8l.087-.05a1.011 1.011 0 0 0 .216-1.445 28.329 28.329 0 0 0-6.774-6.533 1.035 1.035 0 1 0-1.178 1.7 26.092 26.092 0 0 1 6.255 6.053 1.087 1.087 0 0 0 1.393.274zm-59.977 33.458a.932.932 0 0 0 .221-.188 1.045 1.045 0 0 0-.043-1.476 34.539 34.539 0 0 1-5.534-6.829 1.04 1.04 0 1 0-1.775 1.085 35.248 35.248 0 0 0 5.896 7.25 1.029 1.029 0 0 0 1.234.157zm-57.196 29.75a.936.936 0 0 0 .405-.443 221.946 221.946 0 0 1 4.162-8.075 1.042 1.042 0 1 0-1.836-.989 318.279 318.279 0 0 0-4.193 8.123 1.04 1.04 0 0 0 .467 1.382 1 1 0 0 0 .995 0zm8.633-16.028a1.282 1.282 0 0 0 .386-.373 201.592 201.592 0 0 1 4.765-7.704 1.04 1.04 0 1 0-1.755-1.117 206.714 206.714 0 0 0-4.808 7.789 1.052 1.052 0 0 0 .377 1.433 1.12 1.12 0 0 0 1.035-.032zm175.764-101.718a1.04 1.04 0 1 0-1.04-1.8 66.225 66.225 0 0 1-8.059 3.872 1.037 1.037 0 0 0 .78 1.921 66.58 66.58 0 0 0 8.317-3.994zm-16.804 6.815a1.053 1.053 0 0 0 .488-1.182 1.04 1.04 0 0 0-1.29-.726c-2.759.784-5.619 1.443-8.786 2.04a1.044 1.044 0 1 0 .403 2.05c3.211-.624 6.116-1.312 8.933-2.098a.469.469 0 0 0 .255-.08zm-65.092 37.49a1.027 1.027 0 0 0-.182-1.874 42.354 42.354 0 0 0-9.122-1.817 1.047 1.047 0 1 0-.182 2.086 40.452 40.452 0 0 1 8.674 1.715 1.041 1.041 0 0 0 .814-.107zm-54.664 28.32a1.053 1.053 0 0 0 .488-1.183 30.625 30.625 0 0 1-1.115-8.69 1.043 1.043 0 1 0-2.086-.026 32.959 32.959 0 0 0 1.209 9.267 1.039 1.039 0 0 0 1.29.726.579.579 0 0 0 .22-.094zm-29.307 13.803a.762.762 0 0 0 .31-.295q2.692-3.76 5.472-7.21a1.045 1.045 0 1 0-1.627-1.312 143.353 143.353 0 0 0-5.535 7.308 1.048 1.048 0 0 0 .239 1.453 1.034 1.034 0 0 0 1.145.054zm131.237-76.07a1.008 1.008 0 0 0 .508-1.044 1.033 1.033 0 0 0-1.171-.885c-2.704.36-5.652.712-9.02 1.065a1.042 1.042 0 1 0 .208 2.075c3.367-.353 6.338-.719 9.08-1.071a1.178 1.178 0 0 0 .397-.142zm-65.24 32.203a1.015 1.015 0 0 0 .511-.988 1.037 1.037 0 0 0-1.116-.946 69.3 69.3 0 0 0-9.106 1.385 1.036 1.036 0 1 0 .447 2.022 69.736 69.736 0 0 1 8.864-1.335 1.692 1.692 0 0 0 .408-.142zm-54.576 29.71a1.3 1.3 0 0 0 .244-.201 117.93 117.93 0 0 1 6.333-6.448 1.04 1.04 0 0 0-1.419-1.521 136.684 136.684 0 0 0-6.418 6.557 1.031 1.031 0 0 0 .064 1.464.976.976 0 0 0 1.202.145zm101.692-59.974a1.038 1.038 0 0 0-.604-1.931l-2.373.199c-2.223.203-4.461.382-6.693.623a1.042 1.042 0 0 0 .207 2.074l6.67-.61 2.398-.213a1.177 1.177 0 0 0 .402-.146zm-64.855 34.053a1.008 1.008 0 0 0 .45-1.25 1.04 1.04 0 0 0-1.332-.642 69.847 69.847 0 0 0-8.483 3.606 1.041 1.041 0 1 0 .953 1.85 70.977 70.977 0 0 1 8.244-3.498.386.386 0 0 0 .174-.07zm-23.613 13.423l.135-.078a89.999 89.999 0 0 1 7.275-5.28 1.041 1.041 0 1 0-1.126-1.751c-.212.152-.437.282-.65.435a39.429 39.429 0 0 1 3.121-7.175 1.043 1.043 0 0 0-1.82-1.02 40.5 40.5 0 0 0-3.608 8.566 1.019 1.019 0 0 0 .246.999 95.963 95.963 0 0 0-4.745 3.58 1.056 1.056 0 0 0-.166 1.482 1.038 1.038 0 0 0 1.344.239zm70.363-45.727a1.077 1.077 0 0 0 .521-1.021 1.059 1.059 0 0 0-1.161-.92c-3.297.372-6.264.795-9.044 1.23a1.045 1.045 0 1 0 .321 2.064c2.746-.444 5.702-.831 8.964-1.213a1.178 1.178 0 0 0 .404-.142zm-17.932 2.94a1.038 1.038 0 0 0-.743-1.911 103.24 103.24 0 0 0-8.881 2.396 1.05 1.05 0 0 0 .644 2c2.708-.872 5.618-1.653 8.697-2.351.095-.055.198-.085.288-.137zm-38.896 21.887a1.752 1.752 0 0 0 .29-.227 61.61 61.61 0 0 1 4.167-4.477 47.12 47.12 0 0 1 2.074-1.918 1.035 1.035 0 1 0-1.374-1.548 55.087 55.087 0 0 0-2.128 1.98 53.108 53.108 0 0 0-4.31 4.648 1.014 1.014 0 0 0 1.28 1.542zm21.615-16.262a1.042 1.042 0 0 0-.953-1.85 69.172 69.172 0 0 0-8.134 4.366 1.041 1.041 0 1 0 1.127 1.75 64.924 64.924 0 0 1 7.873-4.245.1.1 0 0 0 .093-.023z" fill="#b5a8ff"/><path d="M1282.105 1735.053l4.731 17.645 61.344-33.636z" fill="#b5a8ff"/><path d="M938.354 647.5l-67.954 1.872 8.147 16.141z" transform="rotate(-14.98 5209.79 -374.117)" fill="url(#a)"/><path d="M944.577 635.644L870.4 623.5l6.224 10.474z" transform="rotate(-14.98 5257.91 -356.44)" fill="url(#c)"/></g></svg>